<svg width="24" height="24" viewBox="0 0 24 24" fill="none" xmlns="http://www.w3.org/2000/svg">
<path d="M0 0H24V24H0V0Z" fill="white"/>
<rect x="16.7498" y="7.09684" width="1.25028" height="10.897" rx="0.625142" fill="black"/>
<rect x="13.8656" y="7.09684" width="1.96638" height="10.897" rx="0.983188" fill="black"/>
<path d="M8.22864 8.20905C8.22864 7.66605 8.66883 7.22586 9.21183 7.22586C9.75483 7.22586 10.195 7.66605 10.195 8.20905L10.195 17.0115C10.195 17.5545 9.75483 17.9947 9.21183 17.9947C8.66883 17.9947 8.22864 17.5545 8.22864 17.0115L8.22864 8.20905Z" fill="black"/>
<path d="M6 7.72199C6 7.37673 6.27989 7.09684 6.62514 7.09684C6.9704 7.09684 7.25028 7.37673 7.25028 7.72199L7.25028 17.3687C7.25028 17.714 6.9704 17.9939 6.62514 17.9939C6.27989 17.9939 6 17.714 6 17.3687L6 7.72199Z" fill="black"/>
<rect width="1.94426" height="4.89609" rx="0.972129" transform="matrix(0.992868 0.11922 -0.124575 0.99221 11.3876 12.9103)" fill="black"/>
<rect width="1.94426" height="4.89609" rx="0.972129" transform="matrix(0.992868 -0.11922 0.124576 0.99221 10.7776 7.23179)" fill="black"/>
</svg>
